PathFileType	4	(X/Y/Z)	C:\Users\Basilio\Documents\Thesis Gigler\squatting_fais\c3dfiles\039\SJ_pre4\markers_experimental.trc
DataRate	CameraRate	NumFrames	NumMarkers	Units	OrigDataRate	OrigDataStartFrame	OrigNumFrames
200.000000	200.000000	4	63	mm	200.000000	447	1788
Frame#	Time	FHD			LBHD			RBHD			C7			T10			CLAV			LSHO			LUUPA			LMUPA			LDUPA			LLEP			LMEP			LRAD			LUL			LRFIN			RSHO			RUPA1			RMUPA			RDUPA			RLEP			RMEP			RRAD			RUL			RUFIN			LASI			RASI			USACR			LSACR			RSACR			LTHI1			LTHI2			LTHI3			LTHI4			LLFC			LMFC			LTIB1			LTIB2			LTIB3			LTIB4			LLMAL			LMMAL			LHEE			LMT1			LMT2			LMT5			RTHI			RTHI2			RTHI3			RTHI4			RLFC			RMFC			RTIB1			RTIB2			RTIB3			RTIB4			RLMAL			RMMAL			RHEE			RMT1			RMT2			RMT5			*61			*62			
		X1	Y1	Z1	X2	Y2	Z2	X3	Y3	Z3	X4	Y4	Z4	X5	Y5	Z5	X6	Y6	Z6	X7	Y7	Z7	X8	Y8	Z8	X9	Y9	Z9	X10	Y10	Z10	X11	Y11	Z11	X12	Y12	Z12	X13	Y13	Z13	X14	Y14	Z14	X15	Y15	Z15	X16	Y16	Z16	X17	Y17	Z17	X18	Y18	Z18	X19	Y19	Z19	X20	Y20	Z20	X21	Y21	Z21	X22	Y22	Z22	X23	Y23	Z23	X24	Y24	Z24	X25	Y25	Z25	X26	Y26	Z26	X27	Y27	Z27	X28	Y28	Z28	X29	Y29	Z29	X30	Y30	Z30	X31	Y31	Z31	X32	Y32	Z32	X33	Y33	Z33	X34	Y34	Z34	X35	Y35	Z35	X36	Y36	Z36	X37	Y37	Z37	X38	Y38	Z38	X39	Y39	Z39	X40	Y40	Z40	X41	Y41	Z41	X42	Y42	Z42	X43	Y43	Z43	X44	Y44	Z44	X45	Y45	Z45	X46	Y46	Z46	X47	Y47	Z47	X48	Y48	Z48	X49	Y49	Z49	X50	Y50	Z50	X51	Y51	Z51	X52	Y52	Z52	X53	Y53	Z53	X54	Y54	Z54	X55	Y55	Z55	X56	Y56	Z56	X57	Y57	Z57	X58	Y58	Z58	X59	Y59	Z59	X60	Y60	Z60	X61	Y61	Z61	X62	Y62	Z62	X63	Y63	Z63	

448	2.235	-119.5941543579102	1702.22705078125	-816.4707031250002	-267.4570617675782	1661.066284179688	-944.6313476562502	-249.1168670654297	1669.753784179688	-804.4705810546877	-317.1174926757813	1528.921142578125	-886.6653442382815	-389.6250610351564	1218.93212890625	-897.129577636719	-186.9750366210938	1433.005493164063	-883.8614501953127	-229.3983459472657	1494.900146484375	-1073.045654296875	-329.5451354980469	1372.728271484375	-1240.39892578125	-298.5903015136719	1332.466796875	-1240.870239257813	-338.7857666015626	1318.447143554688	-1284.257202148438	-344.4327392578126	1253.454223632813	-1313.477661132813	-424.2506408691407	1248.5166015625	-1273.223022460938	-373.1037292480469	1015.151916503906	-1143.085205078125	-322.7854309082032	992.7496337890627	-1195.305541992188	-324.4856872558594	1018.673645019531	-1093.010620117188	-217.4897155761719	1481.346557617188	-692.0392456054689	-355.6527099609376	1381.90185546875	-543.4294433593751	-332.2491760253907	1338.568237304688	-531.6469116210939	-383.3451538085938	1333.975708007813	-500.2444152832032	-391.6678466796876	1269.857177734375	-470.5620117187501	-466.5953674316407	1269.160278320313	-520.4105224609376	-363.7991638183594	1064.22509765625	-683.2309570312501	-357.0463867187501	1015.357849121094	-625.1215209960939	-309.9469604492188	1035.760498046875	-726.2827758789064	-257.4753417968751	1008.654663085938	-1011.577209472656	-259.3001098632813	996.7341918945315	-792.979431152344	-429.7020568847657	1092.209350585938	-897.6748657226565	-439.8225402832032	1062.52294921875	-927.0340576171877	-443.0265502929689	1062.083618164063	-868.5256347656252	-276.9014282226563	747.5722656250001	-1107.4794921875	-224.9692382812501	681.1205444335939	-1117.863037109375	-178.7918395996094	696.1199340820314	-1114.550537109375	-234.6572723388672	622.1199340820314	-1103.944702148438	-203.9714050292969	510.8180236816407	-1108.85546875	-162.7515258789063	485.8967895507814	-998.8208618164065	-164.1481323242188	360.8189697265626	-1090.510986328125	-238.4879760742188	334.9376525878907	-1129.719848632813	-200.0753936767579	323.3775329589844	-1113.294921875	-218.0452575683594	245.0919342041016	-1071.90966796875	-322.3449401855469	98.58650970458987	-1099.148315429688	-296.8831787109376	92.85233306884767	-1014.558837890625	-391.0681152343751	41.44656372070313	-1054.316040039063	-156.6252899169922	55.3931007385254	-1072.9794921875	-168.8748931884766	55.74451446533205	-1114.2744140625	-220.3541717529297	32.49302291870118	-1159.47802734375	-272.3456115722657	753.5132446289064	-689.1871948242189	-219.492660522461	714.7361450195314	-675.8858642578126	-188.642578125	726.5430908203126	-680.9144287109376	-220.5413513183594	628.7132568359376	-675.9606933593751	-214.9630279541016	495.8156738281251	-684.7673339843751	-169.2171173095703	480.7490539550782	-791.2517700195315	-207.3452301025391	288.0341491699219	-689.9340209960939	-302.5223388671876	237.9396667480469	-685.7678222656251	-258.1973876953126	222.2134399414063	-683.6191406250001	-246.1962890625001	169.4998321533203	-709.7022094726564	-328.5366516113282	90.87280273437501	-691.0671386718751	-289.8806457519532	97.67895507812503	-773.4494628906252	-392.7305297851564	40.64420318603516	-745.0936889648439	-160.2326354980469	51.06179428100587	-710.8878784179689	-172.179443359375	58.15049743652345	-666.8193969726564	-232.0465850830079	31.80806922912598	-622.8712158203126	nan	nan	nan	nan	nan	nan	
449	2.24	-118.6256866455078	1701.232788085938	-816.576354980469	-266.6699218750001	1659.972045898438	-944.4537353515627	-248.0808715820313	1668.383056640625	-804.423034667969	-316.4153137207032	1528.334838867188	-886.5579833984377	-389.645477294922	1218.403686523438	-897.1492919921877	-186.3722686767578	1432.245361328125	-883.7935180664065	-228.2876586914063	1494.058837890625	-1073.026245117188	-328.7807312011719	1372.124389648438	-1240.480712890625	-297.9031677246094	1331.842041015625	-1240.76025390625	-338.2040710449219	1317.863037109375	-1284.212768554688	-343.9056091308594	1252.73681640625	-1313.56103515625	-423.8229370117189	1248.132080078125	-1273.318725585938	-373.4172058105469	1014.58935546875	-1143.126953125	-323.0654907226563	992.0393066406252	-1195.420043945313	-324.9476318359376	1018.003112792969	-1093.032958984375	-216.7931518554688	1480.227783203125	-691.9529418945314	-355.1553649902344	1381.225708007813	-543.3526000976564	-331.7899169921876	1337.6767578125	-531.7720947265626	-383.0201110839844	1333.478759765625	-500.1095581054689	-391.6332397460939	1269.282958984375	-470.4787902832032	-466.3478088378907	1268.735595703125	-520.4094848632814	-364.1046447753907	1063.723510742188	-683.2657470703126	-357.6245727539063	1014.659606933594	-625.0546875000001	-310.3955383300782	1034.948974609375	-726.2857055664064	-258.0465698242188	1007.827026367188	-1011.525268554688	-259.7486267089844	996.1879882812502	-793.1250000000002	-429.9733886718751	1091.759887695313	-897.7065429687502	-440.1454162597657	1062.094360351563	-927.0493774414065	-443.7284545898439	1061.630126953125	-868.7630004882815	-277.1203613281251	747.1773071289064	-1107.59619140625	-225.0316467285157	680.7328491210939	-1118.106079101563	-178.8291931152344	695.8821411132814	-1114.796142578125	-234.9595642089844	622.0831909179689	-1104.141723632813	-203.3462982177735	510.9194946289064	-1108.943725585938	-162.2521209716797	485.6269836425782	-998.9891357421877	-163.7821044921875	360.5886535644532	-1090.710205078125	-238.2579498291016	334.8099060058594	-1129.754516601563	-199.8572540283204	323.2315368652344	-1113.403442382813	-217.8070678710938	244.8462066650391	-1071.947387695313	-322.3500366210938	98.52003479003909	-1099.176879882813	-296.8798828125001	92.8179397583008	-1014.570861816406	-391.0533752441407	41.42064666748048	-1054.333251953125	-156.6194305419922	56.01264953613283	-1072.658203125	-168.9507141113282	55.80649948120119	-1114.29833984375	-220.3057556152344	32.45078277587891	-1159.472045898438	-272.5731811523438	752.9787597656251	-689.0850219726564	-219.3832092285157	714.6903686523439	-675.5820312500001	-188.7837829589844	726.2883911132814	-680.8173217773439	-220.420883178711	628.3067016601564	-675.7942504882814	-214.4810791015626	495.7115783691407	-684.5015258789064	-168.9165344238282	480.7015686035157	-791.0560302734377	-207.0819549560547	287.8785400390626	-689.8484497070314	-302.3180847167969	237.9644775390626	-685.6296997070314	-258.0256347656251	222.0734252929688	-683.6804199218751	-246.0721740722657	169.4373321533203	-709.7196655273439	-328.5429992675782	90.89585876464845	-691.0632324218751	-289.8328247070313	97.68424224853518	-773.4448852539065	-392.7330017089845	40.66000747680665	-745.1002197265626	-160.3195190429688	51.11908340454103	-710.9351806640626	-172.1983032226563	58.1341896057129	-666.8045654296876	-232.0644073486329	31.82330131530762	-622.8706054687501	nan	nan	nan	nan	nan	nan	
450	2.245	-117.7013397216797	1700.546997070313	-816.400085449219	-266.9839477539063	1659.028198242188	-943.7259521484377	-247.3114166259766	1667.609130859375	-804.3831176757815	-315.3076477050782	1527.509399414063	-886.5756835937502	-389.6336364746095	1218.012329101563	-897.1942138671877	-185.5059204101563	1431.174682617188	-883.7766723632815	-227.577865600586	1493.043090820313	-1072.842895507813	-327.9346618652344	1371.365356445313	-1240.442749023438	-297.3317260742188	1331.118041992188	-1240.733764648438	-337.5238342285157	1317.310302734375	-1284.243896484375	-343.4330444335938	1252.198974609375	-1313.66796875	-423.2173461914064	1247.654052734375	-1273.448120117188	-373.6778869628907	1014.055541992188	-1143.231201171875	-323.3947753906251	991.2419433593752	-1195.452880859375	-325.3287048339844	1017.440856933594	-1092.993041992188	-215.9472656250001	1479.376342773438	-691.9671020507814	-354.5464782714844	1380.48681640625	-543.2307128906251	-331.4743652343751	1337.20556640625	-531.7363281250001	-382.6523742675782	1332.952880859375	-500.1473999023439	-391.522186279297	1268.776611328125	-470.4686279296876	-466.1904296875001	1268.42333984375	-520.3739624023439	-364.5447082519532	1063.2587890625	-683.3408203125001	-358.1580505371094	1013.997924804688	-624.9203491210939	-310.9450988769532	1034.418823242188	-726.3759765625001	-258.4288330078126	1007.01904296875	-1011.647583007813	-260.6275939941407	995.4455566406252	-793.3564453125002	-430.2691345214845	1091.238037109375	-897.7797851562502	-440.3828735351564	1061.744506835938	-926.9773559570315	-443.9202880859376	1061.302734375	-868.6987304687502	-277.2832031250001	746.7279663085939	-1107.73046875	-224.9817199707032	680.3395996093751	-1118.302124023438	-178.8587341308594	695.5357055664064	-1114.96337890625	-234.9026947021485	621.6970214843751	-1104.2900390625	-202.9578552246094	510.6632690429689	-1109.047485351563	-161.8769989013672	485.4503784179689	-999.0997314453127	-163.2929382324219	360.2361450195313	-1090.927368164063	-237.9563751220704	334.7389831542969	-1129.873657226563	-199.5870056152344	323.1266479492188	-1113.4453125	-217.6169738769532	244.7995910644532	-1071.944091796875	-322.2714233398438	98.48449707031253	-1099.146728515625	-296.7914428710938	92.78085327148439	-1014.5615234375	-391.0789489746095	41.45372390747071	-1054.2978515625	-156.6309814453125	55.75936889648439	-1072.78662109375	-168.8977813720703	55.74854278564455	-1114.28955078125	-220.3240509033204	32.43780899047852	-1159.469848632813	-272.7618408203126	752.5706787109376	-689.0140380859376	-219.5185089111329	714.4865112304689	-675.5175170898439	-188.8616638183594	726.0934448242189	-680.7693481445314	-220.3409576416016	627.9701538085939	-675.6339721679689	-214.5678405761719	495.1859130859376	-684.6561889648439	-168.5734405517578	480.5218200683595	-790.8132934570315	-206.8155517578126	287.8065185546876	-689.6945190429689	-302.1318359375001	237.9718322753907	-685.5418701171876	-257.8134765625001	221.9967651367188	-683.5482177734376	-245.9821777343751	169.3382110595703	-709.7216796875001	-328.4739685058594	90.90499114990236	-691.0885009765626	-289.8302001953126	97.65863800048831	-773.4772949218752	-392.740447998047	40.64381790161134	-745.0438842773439	-160.2157440185547	51.02085494995119	-710.8894042968751	-172.1856536865235	58.18588256835939	-666.8213500976564	-232.0382080078126	31.8277988433838	-622.8956909179689	nan	nan	nan	nan	nan	nan	
451	2.25	-116.6959686279297	1699.414672851563	-816.2760009765627	-265.4890441894532	1657.989501953125	-944.0921630859377	-246.2460632324219	1666.656127929688	-804.3806152343752	-314.4063110351563	1526.861206054688	-886.5195312500002	-389.6293029785157	1217.538818359375	-897.329284667969	-184.7773590087891	1430.078491210938	-883.6864013671877	-226.7248992919922	1492.271484375	-1072.753295898438	-327.1891174316407	1370.745239257813	-1240.477416992188	-296.6402282714844	1330.423095703125	-1240.772338867188	-336.8348083496094	1316.784545898438	-1284.181274414063	-343.2514648437501	1251.5634765625	-1313.143188476563	-422.8365173339845	1247.348510742188	-1273.581420898438	-373.9703979492188	1013.433410644531	-1143.32568359375	-323.7977294921876	990.5921020507815	-1195.4345703125	-325.7717285156251	1016.830017089844	-1092.983032226563	-215.2608642578126	1478.609985351563	-691.9091796875001	-354.0115051269532	1380.012573242188	-543.1414184570314	-331.1775207519532	1336.651733398438	-531.7576293945314	-382.3319396972657	1332.43212890625	-500.0956420898439	-391.349822998047	1268.336791992188	-470.4234924316407	-466.0320434570314	1268.055908203125	-520.3146972656251	-365.0127868652344	1062.686401367188	-683.3901367187501	-358.7495117187501	1013.4306640625	-625.0408935546876	-311.2684020996094	1033.851318359375	-726.3825683593751	-258.9295349121094	1006.2236328125	-1011.614318847656	-261.2595214843751	994.4499511718752	-793.021179199219	-430.5787658691407	1090.860595703125	-897.898132324219	-441.9147033691407	1061.174438476563	-927.3334960937502	-444.3224487304689	1060.896362304688	-868.8467407226565	-277.4800415039063	746.2042236328126	-1107.879760742188	-224.9221343994141	679.9668579101564	-1118.447509765625	-178.8633270263672	695.3372192382814	-1115.16015625	-234.8265075683594	621.2830810546876	-1104.368408203125	-202.4583892822266	510.392303466797	-1109.208374023438	-161.6187591552735	485.4217834472657	-999.2200317382815	-162.8949279785157	360.2333374023438	-1091.129638671875	-237.5269012451172	334.6016845703126	-1129.95947265625	-199.235092163086	323.0631408691407	-1113.622802734375	-217.3415985107422	244.6789703369141	-1072.0400390625	-322.1426391601563	98.48784637451175	-1099.154052734375	-296.8000183105469	92.7916717529297	-1014.556274414063	-391.0673828125001	41.45442199707032	-1054.31201171875	-156.6548004150391	55.72605514526369	-1072.779296875	-168.8948516845703	55.76362228393556	-1114.300537109375	-220.3370971679688	32.47342681884766	-1159.479858398438	-273.0500183105469	752.1252441406251	-688.9243164062501	-219.6661071777344	714.1412353515626	-675.4241943359376	-189.0156707763672	725.9384155273439	-680.7426147460939	-220.2440490722657	627.7236328125001	-675.4857177734376	-214.2955627441407	495.0742187500001	-684.4885864257814	-168.1866607666016	480.3713989257814	-790.6057739257815	-206.6373138427735	287.7614746093751	-689.6829833984376	-301.9036254882813	237.9990997314454	-685.4230957031251	-257.5933532714844	221.893783569336	-683.4084472656251	-245.9054870605469	169.3259735107422	-709.7293090820314	-328.4721374511719	90.8712844848633	-691.0939941406251	-289.8210754394532	97.64102935791018	-773.4964599609377	-392.7344665527345	40.63520431518555	-745.1176147460939	-160.1777496337891	50.98566055297853	-710.8545532226564	-172.1785125732422	58.18333816528322	-666.7928466796876	-232.0037231445313	31.86981773376466	-622.9179687500001	nan	nan	nan	nan	nan	nan	
